<svg xmlns="http://www.w3.org/2000/svg" width="160" height="160" fill="none" viewBox="0 0 160 160"><rect width="160" height="160" fill="#1D3DAE" rx="80"/><rect width="12" height="83" x="105" y="38" fill="#4B72FF" opacity=".43" rx="6"/><rect width="12" height="83" x="74" y="38" fill="#4B72FF" opacity=".43" rx="6"/><rect width="12" height="83" x="43" y="38" fill="#4B72FF" opacity=".43" rx="6"/><rect width="12" height="29" x="43" y="92" fill="#74A3FF" opacity=".8" rx="6"/><rect width="12" height="61" x="74" y="60" fill="#74A3FF" opacity=".8" rx="6"/><rect width="12" height="27" x="105" y="94" fill="#74A3FF" opacity=".8" rx="6"/><g filter="url(#filter0_d_1640:10080)"><rect width="12" height="28" x="63" y="87" fill="#CAE9FF" rx="4" transform="rotate(90 63 87)"/><rect width="13" height="29" x="63.5" y="86.5" stroke="#B0CBFF" rx="4.5" transform="rotate(90 63.5 86.5)"/></g><g filter="url(#filter1_d_1640:10080)"><rect width="12" height="28" x="94" y="57" fill="#CAE9FF" rx="4" transform="rotate(90 94 57)"/><rect width="13" height="29" x="94.5" y="56.5" stroke="#B0CBFF" rx="4.5" transform="rotate(90 94.5 56.5)"/></g><g filter="url(#filter2_d_1640:10080)"><rect width="12" height="28" x="125" y="87" fill="#CAE9FF" rx="4" transform="rotate(90 125 87)"/><rect width="13" height="29" x="125.5" y="86.5" stroke="#B0CBFF" rx="4.5" transform="rotate(90 125.5 86.5)"/></g><rect width="13" height="2" x="56" y="94" fill="#CAE9FF" rx="1" transform="rotate(-180 56 94)"/><rect width="13" height="2" x="87" y="64" fill="#CAE9FF" rx="1" transform="rotate(-180 87 64)"/><rect width="13" height="1.683" x="118" y="93.683" fill="#CAE9FF" rx=".841" transform="rotate(-180 118 93.6826)"/><defs><filter id="filter0_d_1640:10080" width="38" height="22" x="30" y="84" color-interpolation-filters="sRGB" filterUnits="userSpaceOnUse"><feFlood flood-opacity="0" result="BackgroundImageFix"/><feColorMatrix in="SourceAlpha" result="hardAlpha" type="matrix" values="0 0 0 0 0 0 0 0 0 0 0 0 0 0 0 0 0 0 127 0"/><feOffset dy="2"/><feGaussianBlur stdDeviation="2"/><feComposite in2="hardAlpha" operator="out"/><feColorMatrix type="matrix" values="0 0 0 0 0 0 0 0 0 0 0 0 0 0 0 0 0 0 0.23 0"/><feBlend in2="BackgroundImageFix" mode="normal" result="effect1_dropShadow_1640:10080"/><feBlend in="SourceGraphic" in2="effect1_dropShadow_1640:10080" mode="normal" result="shape"/></filter><filter id="filter1_d_1640:10080" width="38" height="22" x="61" y="54" color-interpolation-filters="sRGB" filterUnits="userSpaceOnUse"><feFlood flood-opacity="0" result="BackgroundImageFix"/><feColorMatrix in="SourceAlpha" result="hardAlpha" type="matrix" values="0 0 0 0 0 0 0 0 0 0 0 0 0 0 0 0 0 0 127 0"/><feOffset dy="2"/><feGaussianBlur stdDeviation="2"/><feComposite in2="hardAlpha" operator="out"/><feColorMatrix type="matrix" values="0 0 0 0 0 0 0 0 0 0 0 0 0 0 0 0 0 0 0.23 0"/><feBlend in2="BackgroundImageFix" mode="normal" result="effect1_dropShadow_1640:10080"/><feBlend in="SourceGraphic" in2="effect1_dropShadow_1640:10080" mode="normal" result="shape"/></filter><filter id="filter2_d_1640:10080" width="38" height="22" x="92" y="84" color-interpolation-filters="sRGB" filterUnits="userSpaceOnUse"><feFlood flood-opacity="0" result="BackgroundImageFix"/><feColorMatrix in="SourceAlpha" result="hardAlpha" type="matrix" values="0 0 0 0 0 0 0 0 0 0 0 0 0 0 0 0 0 0 127 0"/><feOffset dy="2"/><feGaussianBlur stdDeviation="2"/><feComposite in2="hardAlpha" operator="out"/><feColorMatrix type="matrix" values="0 0 0 0 0 0 0 0 0 0 0 0 0 0 0 0 0 0 0.23 0"/><feBlend in2="BackgroundImageFix" mode="normal" result="effect1_dropShadow_1640:10080"/><feBlend in="SourceGraphic" in2="effect1_dropShadow_1640:10080" mode="normal" result="shape"/></filter></defs></svg>